HIERARCHY
ROOT Hips
{
    OFFSET   0.000000   0.000000   0.000000
    CHANNELS 6 Xposition Yposition Zposition Zrotation Xrotation Yrotation
    JOINT Chest
    {
        OFFSET   0.000000   8.007230   0.000000
        CHANNELS 3 Zrotation Xrotation Yrotation
        JOINT Chest2
        {
            OFFSET   0.000000  22.077100   0.000000
            CHANNELS 3 Zrotation Xrotation Yrotation
            JOINT Neck
            {
                OFFSET   0.000000  23.255100   0.000000
                CHANNELS 3 Zrotation Xrotation Yrotation
                JOINT Head
                {
                    OFFSET   0.000000  14.370100   1.956600
                    CHANNELS 3 Zrotation Xrotation Yrotation
                    End Site
                    {
                        OFFSET   0.000000  19.566000   0.000000
                    }
                }
            }
            JOINT LeftCollar
            {
                OFFSET   3.911900  19.017000  -0.467063
                CHANNELS 3 Zrotation Xrotation Yrotation
                JOINT LeftShoulder
                {
                    OFFSET  10.383700   0.000000   0.000000
                    CHANNELS 3 Zrotation Xrotation Yrotation
                    JOINT LeftElbow
                    {
                        OFFSET  26.662100   0.001193   0.000980
                        CHANNELS 3 Zrotation Xrotation Yrotation
                        JOINT LeftWrist
                        {
                            OFFSET  28.869000  -0.000059  -0.000082
                            CHANNELS 3 Zrotation Xrotation Yrotation
                            JOINT LeftFinger0
                            {
                                OFFSET   2.044650  -2.323450   3.252850
                                CHANNELS 3 Zrotation Xrotation Yrotation
                                JOINT LeftFinger01
                                {
                                    OFFSET   3.088130   0.000000   0.000000
                                    CHANNELS 3 Zrotation Xrotation Yrotation
                                    JOINT LeftFinger02
                                    {
                                        OFFSET   2.639460   0.000000   0.000000
                                        CHANNELS 3 Zrotation Xrotation Yrotation
                                        End Site
                                        {
                                            OFFSET   2.582190   0.000000   0.000000
                                        }
                                    }
                                }
                            }
                            JOINT LeftFinger1
                            {
                                OFFSET   8.364480   0.000000   3.252850
                                CHANNELS 3 Zrotation Xrotation Yrotation
                                JOINT LeftFinger11
                                {
                                    OFFSET   4.646930   0.000000   0.000000
                                    CHANNELS 3 Zrotation Xrotation Yrotation
                                    JOINT LeftFinger12
                                    {
                                        OFFSET   2.323470   0.000000   0.000000
                                        CHANNELS 3 Zrotation Xrotation Yrotation
                                        End Site
                                        {
                                            OFFSET   2.273050   0.000000   0.000000
                                        }
                                    }
                                }
                            }
                            JOINT LeftFinger2
                            {
                                OFFSET   8.364490   0.000016   1.078090
                                CHANNELS 3 Zrotation Xrotation Yrotation
                                JOINT LeftFinger21
                                {
                                    OFFSET   5.111610   0.000000   0.000000
                                    CHANNELS 3 Zrotation Xrotation Yrotation
                                    JOINT LeftFinger22
                                    {
                                        OFFSET   2.788150   0.000016   0.000000
                                        CHANNELS 3 Zrotation Xrotation Yrotation
                                        End Site
                                        {
                                            OFFSET   2.727660   0.000000   0.000000
                                        }
                                    }
                                }
                            }
                            JOINT LeftFinger3
                            {
                                OFFSET   7.899780   0.000015  -1.078090
                                CHANNELS 3 Zrotation Xrotation Yrotation
                                JOINT LeftFinger31
                                {
                                    OFFSET   4.646930   0.000000   0.000000
                                    CHANNELS 3 Zrotation Xrotation Yrotation
                                    JOINT LeftFinger32
                                    {
                                        OFFSET   2.323470   0.000000   0.000000
                                        CHANNELS 3 Zrotation Xrotation Yrotation
                                        End Site
                                        {
                                            OFFSET   2.273050   0.000000   0.000000
                                        }
                                    }
                                }
                            }
                            JOINT LeftFinger4
                            {
                                OFFSET   7.435090   0.000000  -3.252850
                                CHANNELS 3 Zrotation Xrotation Yrotation
                                JOINT LeftFinger41
                                {
                                    OFFSET   3.717550   0.000000   0.000000
                                    CHANNELS 3 Zrotation Xrotation Yrotation
                                    JOINT LeftFinger42
                                    {
                                        OFFSET   1.858770   0.000000   0.000000
                                        CHANNELS 3 Zrotation Xrotation Yrotation
                                        End Site
                                        {
                                            OFFSET   1.818440   0.000000   0.000000
                                        }
                                    }
                                }
                            }
                        }
                    }
                }
            }
            JOINT RightCollar
            {
                OFFSET  -3.911910  19.017000  -0.467062
                CHANNELS 3 Zrotation Xrotation Yrotation
                JOINT RightShoulder
                {
                    OFFSET -10.383700   0.000014   0.000000
                    CHANNELS 3 Zrotation Xrotation Yrotation
                    JOINT RightElbow
                    {
                        OFFSET -26.662100   0.001225   0.001091
                        CHANNELS 3 Zrotation Xrotation Yrotation
                        JOINT RightWrist
                        {
                            OFFSET -28.869000  -0.000020  -0.000085
                            CHANNELS 3 Zrotation Xrotation Yrotation
                            JOINT RightFinger0
                            {
                                OFFSET  -2.044650  -2.323490   3.252850
                                CHANNELS 3 Zrotation Xrotation Yrotation
                                JOINT RightFinger01
                                {
                                    OFFSET  -3.088130   0.000000   0.000000
                                    CHANNELS 3 Zrotation Xrotation Yrotation
                                    JOINT RightFinger02
                                    {
                                        OFFSET  -2.639460   0.000000   0.000000
                                        CHANNELS 3 Zrotation Xrotation Yrotation
                                        End Site
                                        {
                                            OFFSET  -2.582190   0.000000   0.000000
                                        }
                                    }
                                }
                            }
                            JOINT RightFinger1
                            {
                                OFFSET  -8.364480   0.000000   3.252850
                                CHANNELS 3 Zrotation Xrotation Yrotation
                                JOINT RightFinger11
                                {
                                    OFFSET  -4.646930   0.000000   0.000000
                                    CHANNELS 3 Zrotation Xrotation Yrotation
                                    JOINT RightFinger12
                                    {
                                        OFFSET  -2.323470   0.000000   0.000000
                                        CHANNELS 3 Zrotation Xrotation Yrotation
                                        End Site
                                        {
                                            OFFSET  -2.273050   0.000000   0.000000
                                        }
                                    }
                                }
                            }
                            JOINT RightFinger2
                            {
                                OFFSET  -8.364480   0.000000   1.078090
                                CHANNELS 3 Zrotation Xrotation Yrotation
                                JOINT RightFinger21
                                {
                                    OFFSET  -5.111620   0.000000   0.000000
                                    CHANNELS 3 Zrotation Xrotation Yrotation
                                    JOINT RightFinger22
                                    {
                                        OFFSET  -2.788160   0.000000   0.000000
                                        CHANNELS 3 Zrotation Xrotation Yrotation
                                        End Site
                                        {
                                            OFFSET  -2.727660   0.000000   0.000000
                                        }
                                    }
                                }
                            }
                            JOINT RightFinger3
                            {
                                OFFSET  -7.899780   0.000000  -1.078090
                                CHANNELS 3 Zrotation Xrotation Yrotation
                                JOINT RightFinger31
                                {
                                    OFFSET  -4.646930   0.000000   0.000000
                                    CHANNELS 3 Zrotation Xrotation Yrotation
                                    JOINT RightFinger32
                                    {
                                        OFFSET  -2.323470   0.000000   0.000000
                                        CHANNELS 3 Zrotation Xrotation Yrotation
                                        End Site
                                        {
                                            OFFSET  -2.273050   0.000000   0.000000
                                        }
                                    }
                                }
                            }
                            JOINT RightFinger4
                            {
                                OFFSET  -7.435090   0.000000  -3.252850
                                CHANNELS 3 Zrotation Xrotation Yrotation
                                JOINT RightFinger41
                                {
                                    OFFSET  -3.717550   0.000000   0.000000
                                    CHANNELS 3 Zrotation Xrotation Yrotation
                                    JOINT RightFinger42
                                    {
                                        OFFSET  -1.858760   0.000000   0.000000
                                        CHANNELS 3 Zrotation Xrotation Yrotation
                                        End Site
                                        {
                                            OFFSET  -1.818440   0.000000   0.000000
                                        }
                                    }
                                }
                            }
                        }
                    }
                }
            }
        }
    }
    JOINT LeftHip
    {
        OFFSET   9.783030   0.000000   0.000000
        CHANNELS 3 Zrotation Xrotation Yrotation
        JOINT LeftKnee
        {
            OFFSET   0.000063 -41.789100   0.000608
            CHANNELS 3 Zrotation Xrotation Yrotation
            JOINT LeftAnkle
            {
                OFFSET   0.000048 -41.133200  -0.000184
                CHANNELS 3 Zrotation Xrotation Yrotation
                JOINT LeftToe
                {
                    OFFSET   0.000000  -6.358960  14.674500
                    CHANNELS 3 Zrotation Xrotation Yrotation
                    End Site
                    {
                        OFFSET   0.000000   0.000000   3.913200
                    }
                }
            }
        }
    }
    JOINT RightHip
    {
        OFFSET  -9.783030   0.000000   0.000000
        CHANNELS 3 Zrotation Xrotation Yrotation
        JOINT RightKnee
        {
            OFFSET   0.000071 -41.789100   0.001239
            CHANNELS 3 Zrotation Xrotation Yrotation
            JOINT RightAnkle
            {
                OFFSET   0.000037 -41.133200  -0.000166
                CHANNELS 3 Zrotation Xrotation Yrotation
                JOINT RightToe
                {
                    OFFSET   0.000000  -6.358960  14.674500
                    CHANNELS 3 Zrotation Xrotation Yrotation
                    End Site
                    {
                        OFFSET   0.000000   0.000000   3.913200
                    }
                }
            }
        }
    }
}
MOTION
Frames: 4
Frame Time:   0.016667
 -0.618767  89.554800   0.446127  -2.203660  -6.155530   0.619511   0.651900   2.600780  -1.025080   1.352410   5.189310  -2.082950   2.793740   1.529260  -0.069920   4.594980   3.078640   3.885710  -0.477611  -0.468764   3.127620 -79.048600  14.330900   0.985261  -1.586210  -4.249050 -14.153700  16.408800  -4.592190   4.670970  36.016300  27.486600 -58.830100 -32.668500   0.002871   0.006447 -11.333300   0.001831   0.001140 -31.681700   5.170710  -8.296730 -26.242600   0.002085   0.001131 -18.369800   0.001460  -0.004407 -28.704700  -0.054640   0.099827 -39.136500   0.004190   0.002456 -26.064900   0.001805   0.002799 -28.614800  -0.054504   0.099907 -37.637000   0.003199   0.005683 -25.075800   0.002096   0.000220 -30.899900  -0.058435   0.097668 -46.332100   0.002104  -0.001287 -30.869000  -0.015483   0.000000   5.762850  -0.796318   0.665165  74.683700  17.074100  -5.678910  -1.374310  -4.040070  12.136600 -15.462200  -5.326270  -2.027350 -38.370100  36.377000  78.217200  28.600300  -0.001957  -0.010843   9.295140  -0.002610  -0.004507  35.895000   9.547850  12.908400  30.254300  -0.000616  -0.000162  21.178000   0.010389  -0.001680  31.165600   2.316420   3.822470  46.873100  -0.004059  -0.002111  31.211700  -0.001894  -0.000229  29.329300   2.031870   3.610890  44.090000  -0.001266  -0.004426  29.363900  -0.000643  -0.004712  40.884000  -1.337210  -1.544040  61.353000  -0.005874  -0.002944  40.861100  -0.005008  -0.000981   2.130130   7.726310   0.466237   0.691033   0.064393   0.675042  -1.297630  -2.785270  -2.751900  -0.000000   0.000000   0.000000   4.832410   5.892490   0.227004  -2.557570   4.490260  -4.078780   0.180685  -4.927270   0.298342  -0.000000   0.000000  -0.000000
 -0.618762  89.554800   0.446123  -2.203560  -6.164840   0.629320   0.651942   2.605830  -1.021930   1.352470   5.199420  -2.076710   2.793950   1.542020  -0.069932   4.594890   3.104380   3.871260  -0.476971  -0.474338   3.139030 -79.053700  14.353500   0.980607  -1.582950  -4.252430 -14.173700  16.409700  -4.600430   4.671010  36.020300  27.509300 -58.845700 -32.673600   0.002867   0.006453 -11.336200   0.001813   0.001138 -31.689600   5.166940  -8.293240 -26.242600   0.002095   0.001123 -18.369800   0.001464  -0.004407 -28.704700  -0.057683   0.105361 -39.150600   0.004236   0.002474 -26.074300   0.001833   0.002810 -28.614800  -0.057534   0.105446 -37.645700   0.003212   0.005685 -25.075500   0.002104   0.000243 -30.899800  -0.061685   0.103077 -46.341000   0.002112  -0.001273 -30.868900  -0.015499   0.000032   5.769560  -0.839394   0.676125  74.699800  17.108000  -5.720790  -1.416450  -4.017950  12.191400 -15.460100  -5.349300  -2.021860 -38.338600  36.345200  78.230300  28.606800  -0.001944  -0.010841   9.300920  -0.002609  -0.004500  35.906900   9.542870  12.893700  30.262800  -0.000619  -0.000157  21.183900   0.010390  -0.001684  31.173600   2.293640   3.783900  46.878400  -0.004059  -0.002099  31.218200  -0.001897  -0.000226  29.347500   2.016940   3.581800  44.116400  -0.001268  -0.004402  29.381500  -0.000635  -0.004724  40.902200  -1.342690  -1.549320  61.380500  -0.005870  -0.002918  40.879400  -0.004987  -0.000962   2.131030   7.731680   0.466506   0.691106   0.065149   0.674926  -1.297880  -2.785000  -2.757240  -0.000000   0.000000  -0.000000   4.832470   5.903020   0.226076  -2.552510   4.491470  -4.083800   0.180858  -4.928360   0.297987   0.000000   0.000000  -0.000000
 -0.618758  89.554800   0.446120  -2.205190  -6.183670   0.643630   0.652017   2.616700  -1.016420   1.352570   5.221190  -2.065820   2.794160   1.560520  -0.069949   4.594710   3.141730   3.850270  -0.476178  -0.482638   3.150430 -79.060200  14.392500   0.966159  -1.578140  -4.259390 -14.202400  16.410600  -4.608670   4.671050  36.025800  27.543600 -58.867900 -32.683800   0.002847   0.006484 -11.341900   0.001769   0.001136 -31.700400   5.159460  -8.284250 -26.242600   0.002116   0.001101 -18.369800   0.001477  -0.004407 -28.704700  -0.063622   0.116179 -39.164700   0.004348   0.002517 -26.083700   0.001900   0.002839 -28.614800  -0.063450   0.116272 -37.654300   0.003244   0.005692 -25.075200   0.002123   0.000302 -30.899600  -0.068030   0.113653 -46.349900   0.002131  -0.001241 -30.868700  -0.015541   0.000093   5.785460  -0.925925   0.694480  74.730700  17.164600  -5.794300  -1.516290  -3.982030  12.296200 -15.443300  -5.372330  -2.016380 -38.247000  36.307000  78.246200  28.613400  -0.001931  -0.010834   9.306710  -0.002607  -0.004475  35.919700   9.533940  12.878900  30.271300  -0.000622  -0.000152  21.189900   0.010391  -0.001689  31.181600   2.270550   3.745320  46.883700  -0.004058  -0.002072  31.224600  -0.001908  -0.000222  29.366900   1.992380   3.535450  44.142700  -0.001271  -0.004352  29.399000  -0.000618  -0.004753  40.920400  -1.348180  -1.554790  61.408000  -0.005860  -0.002863  40.897800  -0.004940  -0.000920   2.134480   7.749370   0.466789   0.691179   0.065905   0.674809  -1.298270  -2.783190  -2.765680   0.000000   0.000000  -0.000000   4.832520   5.922820   0.225152  -2.543270   4.493850  -4.096820   0.181031  -4.929490   0.297632   0.000000   0.000000   0.000000
 -0.622128  89.555700   0.446167  -2.210380  -6.205080   0.651812   0.652053   2.630080  -1.010900   1.352570   5.248030  -2.054940   2.794110   1.569500  -0.069961   4.594540   3.160100   3.838540  -0.475985  -0.487345   3.149860 -79.060300  14.420600   0.940238  -1.575680  -4.263350 -14.215900  16.409400  -4.605010   4.677040  36.027300  27.561900 -58.874500 -32.697200   0.002799   0.006554 -11.348600   0.001705   0.001142 -31.704900   5.148410  -8.265700 -26.244000   0.002144   0.001066 -18.370400   0.001502  -0.004402 -28.704700  -0.071316   0.130084 -39.163400   0.004519   0.002577 -26.082900   0.002001   0.002885 -28.614700  -0.071117   0.130191 -37.652400   0.003290   0.005702 -25.075000   0.002153   0.000393 -30.899300  -0.076251   0.127257 -46.348200   0.002158  -0.001194 -30.868500  -0.015609   0.000158   5.810790  -1.030360   0.709729  74.802100  17.211900  -5.878560  -1.653640  -3.959630  12.401300 -15.367100  -5.364060  -2.037020 -38.188900  36.313600  78.299100  28.594200  -0.001930  -0.010817   9.297090  -0.002592  -0.004430  35.905500   9.523700  12.879400  30.259900  -0.000622  -0.000167  21.181900   0.010388  -0.001690  31.172200   2.270200   3.746140  46.870400  -0.004056  -0.002030  31.215700  -0.001930  -0.000224  29.365100   1.968810   3.495460  44.135900  -0.001270  -0.004282  29.394500  -0.000595  -0.004796  40.920300  -1.348130  -1.555020  61.407800  -0.005844  -0.002785  40.897700  -0.004871  -0.000866   2.141300   7.787510   0.466061   0.690807   0.035140   0.675387  -1.298580  -2.766530  -2.772700  -0.000000   0.000000   0.000000   4.834210   5.942340   0.237011  -2.532600   4.496640  -4.119530   0.181152  -4.929520   0.299383   0.000000   0.000000  -0.000000
